<?xml version="1.0" standalone="no"?><!DOCTYPE svg PUBLIC "-//W3C//DTD SVG 1.1//EN" "http://www.w3.org/Graphics/SVG/1.1/DTD/svg11.dtd"><svg t="1709282139343" class="icon" viewBox="0 0 1024 1024" version="1.1" xmlns="http://www.w3.org/2000/svg" p-id="4238" xmlns:xlink="http://www.w3.org/1999/xlink" width="200" height="200"><path d="M945.930435 893.864104 556.382325 510.921435l381.169279-391.296941c12.443403-12.757558 12.218276-33.217543-0.49221-45.705971-12.688997-12.487406-33.062-12.263301-45.480844 0.494257L510.399037 465.718931 120.843764 82.768075c-12.691043-12.487406-33.062-12.263301-45.481867 0.494257-12.419867 12.735046-12.195763 33.217543 0.494257 45.683459l389.553227 382.958018L84.231915 903.207913c-12.443403 12.756535-12.217253 33.216519 0.494257 45.705971 6.356778 6.243191 14.622022 9.29776 22.841218 9.208732 8.243755-0.091074 16.418948-3.325745 22.64065-9.702989l381.182582-391.310244L900.942825 940.065356c6.333242 6.242168 14.600533 9.320273 22.840194 9.229199 8.222265-0.088004 16.419971-3.346211 22.64065-9.723455C958.844559 926.811494 958.641945 906.35151 945.930435 893.864104z" fill="#666666" p-id="4239"></path></svg>